<?xml version="1.0" standalone="no"?><svg xmlns="http://www.w3.org/2000/svg" viewBox="0 0 1440 320"><path fill="#c9c6c6" fill-opacity="1" d="M0,160L34.3,144C68.6,128,137,96,206,80C274.3,64,343,64,411,85.3C480,107,549,149,617,192C685.7,235,754,277,823,282.7C891.4,288,960,256,1029,234.7C1097.1,213,1166,203,1234,197.3C1302.9,192,1371,192,1406,192L1440,192L1440,320L1405.7,320C1371.4,320,1303,320,1234,320C1165.7,320,1097,320,1029,320C960,320,891,320,823,320C754.3,320,686,320,617,320C548.6,320,480,320,411,320C342.9,320,274,320,206,320C137.1,320,69,320,34,320L0,320Z"></path></svg>